# xmcd
#
# Track frame offsets:
#	150
#	10315
#	17604
#	22774
#	32323
#	36048
#	40197
#	44113
#	54767
#	64391
#	69732
#	75425
#	79410
#	89200
#	96259
#	102990
#	110281
#	117141
#	124037
#	128645
#	136358
#	141427
#	145095
#	158919
#	165332
#	168766
#	177413
#	189316
#	194851
#	199089
#	207330
#	215731
#	225820
#	237460
#	241459
#	247599
#	257611
#	264816
#	271835
#	281105
#	288380
#	293047
#	300687
#	307922
#	313383
#	319702
#
# Disc length: 4421 seconds
#
# Revision: 5
# Processed by: cddbd v1.5.2PL0 Copyright (c) Steve Scherf et al.
# Submitted via: EasyCDDAExtractor 12.0.4.1
#
DISCID=8d11432e
DTITLE=少儿艺术团 - 北京童谣
DYEAR=2002
DGENRE=Other
TTITLE0=小耗子上灯台
TTITLE1=一个蛤蟆四条腿
TTITLE2=小白兔白又白
TTITLE3=水牛儿
TTITLE4=耗子长了一身毛
TTITLE5=看金鱼
TTITLE6=小蝴蝶
TTITLE7=尾巴谣
TTITLE8=小叭狗儿带铃铛
TTITLE9=小白兔去赶集
TTITLE10=小耗子儿上灯台
TTITLE11=娶了媳妇不要娘
TTITLE12=谁会谣
TTITLE13=臭蚊子嗡嗡嗡
TTITLE14=耗子娶亲
TTITLE15=小花猫
TTITLE16=小鸽子满天飞
TTITLE17=黄狗看家
TTITLE18=小喜鹊站树杈
TTITLE19=小兔子开铺子
TTITLE20=斗虫儿飞
TTITLE21=喜鹊喳喳
TTITLE22=耳朵歌
TTITLE23=高高山上一头牛
TTITLE24=喇叭花
TTITLE25=五指歌
TTITLE26=小蝌蚪
TTITLE27=板凳和扁担
TTITLE28=西瓜
TTITLE29=小狗汪汪叫
TTITLE30=点花歌
TTITLE31=擗白菜
TTITLE32=胡萝卜尖儿
TTITLE33=红门楼儿
TTITLE34=一个枣儿大不大
TTITLE35=跳皮筋
TTITLE36=大头儿打
TTITLE37=千条线 万朵花
TTITLE38=大姐上山出溜溜
TTITLE39=树上叫声高
TTITLE40=哥儿俩
TTITLE41=说你呆你不呆
TTITLE42=起南来个黑大汉
TTITLE43=六字歌
TTITLE44=忽听门外人咬狗
TTITLE45=什么尖尖尖上天
EXTD=
EXTT0=
EXTT1=
EXTT2=
EXTT3=
EXTT4=
EXTT5=
EXTT6=
EXTT7=
EXTT8=
EXTT9=
EXTT10=
EXTT11=
EXTT12=
EXTT13=
EXTT14=
EXTT15=
EXTT16=
EXTT17=
EXTT18=
EXTT19=
EXTT20=
EXTT21=
EXTT22=
EXTT23=
EXTT24=
EXTT25=
EXTT26=
EXTT27=
EXTT28=
EXTT29=
EXTT30=
EXTT31=
EXTT32=
EXTT33=
EXTT34=
EXTT35=
EXTT36=
EXTT37=
EXTT38=
EXTT39=
EXTT40=
EXTT41=
EXTT42=
EXTT43=
EXTT44=
EXTT45=
PLAYORDER=
